<svg width="190" height="190" viewBox="0 0 190 190" fill="none" xmlns="http://www.w3.org/2000/svg">
<rect width="190" height="190" fill="white"/>
<path d="M94.0033 91.2062H86.1427V78.0224H95.468C100.538 78.0224 103.415 80.2877 103.415 84.3843C103.415 88.7587 100.066 91.2062 93.9947 91.2062H94.0033ZM95.4073 96.4398H86.147V110.969H95.8147C102.137 110.969 105.487 108.43 105.487 103.657C105.487 98.883 102.042 96.4398 95.4073 96.4398V96.4398ZM147 91.8572V97.1428C142.112 97.6115 139.126 101.239 137.354 106.985C135.59 112.709 135.348 119.731 135.534 125.151C135.729 130.792 131.339 136 125.407 136H64.6017C58.665 136 54.2753 130.792 54.4747 125.151C54.661 119.731 54.4183 112.709 52.6547 106.985C50.878 101.239 47.888 97.6115 43 97.1428V91.8572C47.888 91.3885 50.8823 87.7605 52.6503 82.0148C54.4183 76.2909 54.661 69.2693 54.4703 63.8491C54.2753 58.2076 58.665 53 64.6017 53H125.407C131.344 53 135.729 58.2076 135.534 63.8491C135.348 69.2693 135.59 76.2909 137.354 82.0148C139.126 87.7605 142.112 91.3885 147 91.8572ZM112.65 104.082C112.65 98.2061 108.52 93.9575 102.388 93.2849V93.0375C106.895 92.3041 110.431 88.112 110.431 83.4339C110.431 76.7639 105.175 72.4199 97.1623 72.4199H79.1357V116.563H97.2533C106.865 116.563 112.65 111.85 112.65 104.082V104.082Z" fill="#750088"/>
</svg>
