<svg width="190" height="190" viewBox="0 0 190 190" fill="none" xmlns="http://www.w3.org/2000/svg">
<rect width="190" height="190" fill="white"/>
<path d="M92.6118 54H105.883V116.067C99.0748 117.372 94.0762 117.895 88.6481 117.895C72.4449 117.895 64 110.495 64 96.3017C64 82.6282 72.9623 73.7518 86.8387 73.7518C88.993 73.7518 90.6299 73.9226 92.6118 74.4453V54ZM92.6118 85.2386C91.1692 84.7463 89.653 84.5105 88.1306 84.5416C81.4072 84.5416 77.5314 88.7202 77.5314 96.0387C77.5314 103.18 81.2381 107.095 88.0461 107.095C89.5105 107.095 90.7178 107.01 92.6118 106.747V85.2352V85.2386ZM127 74.705V105.79C127 116.498 126.226 121.636 123.899 126.075C121.744 130.342 118.9 133.041 113.039 136L100.715 130.079C106.576 127.294 109.42 124.851 111.23 121.11C113.127 117.28 113.729 112.838 113.729 101.174V74.7016H127V74.705ZM113.729 54.0718H127V67.8273H113.729V54.0718Z" fill="#092E20"/>
</svg>
