<svg width="190" height="190" viewBox="0 0 190 190" fill="none" xmlns="http://www.w3.org/2000/svg">
<rect width="190" height="190" fill="white"/>
<path d="M141 120.548C139.661 121.06 138.183 121.059 136.845 120.545C135.507 120.031 134.401 119.039 133.736 117.756L120.511 99.2558L118.594 96.6693L103.249 117.78C102.624 119.008 101.579 119.965 100.307 120.47C99.036 120.975 97.6262 120.995 96.3417 120.525L116.114 93.6913L97.7217 69.4518C99.0442 68.9697 100.49 68.9633 101.817 69.4337C103.144 69.9041 104.27 70.8225 105.005 72.0344L118.713 90.7636L132.498 72.1119C133.127 70.9051 134.174 69.9745 135.437 69.4969C136.701 69.0193 138.094 69.0281 139.352 69.5216L132.214 79.1034L122.546 91.8339C122.278 92.0761 122.063 92.3731 121.916 92.7052C121.769 93.0373 121.693 93.3971 121.693 93.7611C121.693 94.125 121.769 94.4848 121.916 94.817C122.063 95.1491 122.278 95.446 122.546 95.6883L140.962 120.552L141 120.548ZM49.0077 93.3578L50.6177 85.3116C55.0414 69.4014 73.0734 62.7822 85.478 72.6315C92.7422 78.4054 94.5554 86.5796 94.1989 95.793H53.278C52.6149 112.246 64.3525 122.181 79.36 117.105C81.7929 116.219 83.9705 114.736 85.6979 112.79C87.4253 110.844 88.6484 108.494 89.2577 105.953C90.0512 103.37 91.3584 102.928 93.758 103.672C93.3581 106.823 92.2573 109.84 90.5383 112.498C88.8193 115.155 86.5269 117.384 83.8335 119.016C79.3846 121.478 74.2802 122.454 69.2501 121.804C64.22 121.154 59.5218 118.912 55.8272 115.399C52.1742 111.239 49.9663 105.985 49.5405 100.438C49.5405 99.5272 49.2339 98.6741 49.0269 97.8559C49.0082 96.3579 48.9993 94.8598 49 93.3617L49.0077 93.3578ZM53.3279 92.2488H90.3349C90.1049 80.321 82.6644 71.8599 72.7399 71.7823C61.6922 71.6272 53.7879 79.9022 53.301 92.1945L53.3279 92.2488Z" fill="black"/>
</svg>
