<svg width="190" height="190" viewBox="0 0 190 190" fill="none" xmlns="http://www.w3.org/2000/svg">
<rect width="190" height="190" fill="white"/>
<path d="M52 55H138V135H52V55ZM129.361 103.707C128.592 98.9169 125.459 94.8919 116.165 91.1381C112.931 89.6287 109.337 88.5787 108.269 86.1506C107.869 84.7069 107.808 83.9194 108.067 83.0662C108.726 80.24 112.088 79.3912 114.724 80.1787C116.438 80.7037 118.02 82.0162 119.013 84.1162C123.556 81.1587 123.556 81.1587 126.725 79.1944C125.538 77.3569 124.949 76.565 124.15 75.7819C121.381 72.6975 117.695 71.1225 111.697 71.2581L108.599 71.6475C105.628 72.3694 102.798 73.9444 101.085 76.0444C96.0753 81.6925 97.521 91.5363 103.585 95.605C109.583 100.068 118.354 101.047 119.474 105.252C120.529 110.371 115.651 112.011 110.835 111.421C107.272 110.633 105.299 108.857 103.124 105.576L95.0822 110.174C96.005 112.274 97.0596 113.188 98.6415 115.026C106.287 122.708 125.402 122.314 128.834 110.633C128.961 110.239 129.888 107.549 129.159 103.414L129.361 103.707ZM89.8883 72.0106H80.0103C80.0103 80.4894 79.9707 88.9156 79.9707 97.4075C79.9707 102.798 80.2475 107.746 79.3643 109.268C77.9142 112.283 74.1792 111.897 72.4831 111.368C70.743 110.511 69.8598 109.329 68.8359 107.628C68.5591 107.168 68.3526 106.77 68.2779 106.77L60.2585 111.692C61.5987 114.448 63.5541 116.819 66.0764 118.329C69.8334 120.56 74.8823 121.282 80.1685 120.101C83.6091 119.112 86.5751 117.077 88.1263 113.927C90.3673 109.859 89.8927 104.871 89.8708 99.2888C89.9235 90.3025 89.8708 81.3119 89.8708 72.2556L89.8883 72.0106Z" fill="#F7DF1E"/>
</svg>
