<svg width="190" height="190" viewBox="0 0 190 190" fill="none" xmlns="http://www.w3.org/2000/svg">
<rect width="190" height="190" fill="white"/>
<path d="M83.9702 117.961C83.9702 117.961 80.7582 119.83 86.2575 120.46C92.9198 121.223 96.3245 121.115 103.663 119.722C103.663 119.722 105.596 120.933 108.29 121.983C91.8304 129.028 71.045 121.57 83.9702 117.961V117.961ZM81.9561 108.766C81.9561 108.766 78.3553 111.43 83.8546 112C90.9723 112.732 96.5907 112.795 106.318 110.922C106.318 110.922 107.663 112.284 109.775 113.029C89.8829 118.843 67.7173 113.484 81.9561 108.766ZM98.9095 93.1632C102.966 97.8287 97.8447 102.029 97.8447 102.029C97.8447 102.029 108.139 96.7157 103.411 90.0656C98.9936 83.8635 95.6064 80.7835 113.943 70.1573C113.943 70.1538 85.1647 77.3359 98.9095 93.1632V93.1632ZM120.676 124.765C120.676 124.765 123.054 126.722 118.059 128.234C108.56 131.111 78.5199 131.975 70.1798 128.349C67.1814 127.044 72.8069 125.234 74.5723 124.856C76.4182 124.457 77.4726 124.531 77.4726 124.531C74.1344 122.182 55.9095 129.14 68.2147 131.135C101.771 136.571 129.38 128.685 120.676 124.765ZM85.5149 99.2358C85.5149 99.2358 70.2358 102.862 80.1067 104.178C84.2715 104.734 92.58 104.608 100.318 103.961C106.644 103.429 112.991 102.291 112.991 102.291C112.991 102.291 110.759 103.243 109.145 104.346C93.6309 108.423 63.6576 106.526 72.2885 102.358C79.5812 98.8368 85.5149 99.2358 85.5149 99.2358ZM112.921 114.545C128.694 106.355 121.401 98.4832 116.311 99.5473C115.068 99.8063 114.507 100.03 114.507 100.03C114.507 100.03 114.97 99.3058 115.856 98.9908C125.926 95.4522 133.671 109.424 112.605 114.958C112.605 114.955 112.851 114.741 112.921 114.545ZM103.411 53C103.411 53 112.147 61.7291 95.1266 75.1554C81.4797 85.925 92.0161 92.0676 95.123 99.0818C87.1577 91.8961 81.3116 85.5785 85.2312 79.6949C90.9898 71.0533 106.938 66.8672 103.411 53V53ZM87.0632 136.735C102.202 137.705 125.45 136.2 126 129.042C126 129.042 124.942 131.755 113.488 133.911C100.57 136.34 84.6287 136.056 75.1783 134.499C75.1783 134.495 77.1153 136.098 87.0632 136.735" fill="#007396"/>
</svg>
