<svg width="190" height="190" viewBox="0 0 190 190" fill="none" xmlns="http://www.w3.org/2000/svg">
<rect width="190" height="190" fill="white"/>
<g clip-path="url(#clip0_704_14)">
<path d="M58.3375 73.545C50.8965 84.234 51.8205 98.136 57.508 109.486C57.6375 109.763 57.781 110.025 57.921 110.288C58.0015 110.47 58.0925 110.638 58.1905 110.813C58.236 110.907 58.299 111.009 58.355 111.1C58.446 111.282 58.544 111.457 58.6385 111.632L59.188 112.563C59.293 112.734 59.3875 112.902 59.503 113.074C59.699 113.403 59.923 113.728 60.126 114.057C60.217 114.197 60.301 114.33 60.4025 114.467C60.7419 115.001 61.1039 115.521 61.4875 116.024C61.7605 116.399 62.0335 116.763 62.3275 117.127C62.422 117.26 62.5305 117.393 62.6285 117.529L63.3985 118.471C63.4965 118.576 63.591 118.705 63.6925 118.817C64.0355 119.23 64.3995 119.633 64.7635 120.042L64.781 120.063C65.2254 120.624 65.7236 121.14 66.2685 121.603C66.5485 121.894 66.8285 122.181 67.126 122.461L67.4795 122.8C67.868 123.168 68.26 123.532 68.6695 123.882C68.6765 123.882 68.68 123.889 68.687 123.892L68.8865 124.067C69.2435 124.379 69.604 124.69 69.9715 124.977L70.409 125.345C70.7065 125.583 71.018 125.81 71.319 126.045L71.7985 126.412C72.124 126.657 72.4705 126.899 72.803 127.137C72.9255 127.224 73.048 127.312 73.174 127.392L73.279 127.473L74.259 128.12L74.679 128.4C75.197 128.729 75.708 129.044 76.219 129.352C76.3625 129.422 76.513 129.506 76.6495 129.59C77.0275 129.807 77.4195 130.028 77.801 130.231C78.011 130.35 78.228 130.451 78.445 130.56C78.7075 130.707 78.9805 130.85 79.264 130.997C79.3317 131.018 79.3973 131.045 79.46 131.078C79.5755 131.13 79.684 131.186 79.796 131.242C80.216 131.452 80.6535 131.655 81.1085 131.855C81.1925 131.89 81.2835 131.925 81.3745 131.974C81.8785 132.194 82.386 132.404 82.9075 132.611C83.0265 132.646 83.1525 132.705 83.275 132.751C83.7475 132.929 84.234 133.111 84.7135 133.283L84.8885 133.346C85.4275 133.528 85.956 133.703 86.4985 133.871C86.6245 133.906 86.754 133.951 86.887 133.986C87.447 134.154 87.986 134.354 88.546 134.466C124.502 141.018 134.949 112.846 134.949 112.846C126.171 124.277 110.596 127.291 95.84 123.938C95.294 123.812 94.748 123.637 94.195 123.476C93.5289 123.278 92.8673 123.066 92.2105 122.839L91.9935 122.755C91.5175 122.594 91.059 122.415 90.5935 122.237C90.4669 122.186 90.3385 122.139 90.2085 122.097C89.6905 121.887 89.1935 121.673 88.693 121.453C88.5845 121.418 88.4935 121.369 88.385 121.327C87.961 121.132 87.5386 120.934 87.118 120.732C86.992 120.676 86.8682 120.616 86.747 120.55C86.418 120.396 86.089 120.217 85.767 120.049C85.5459 119.943 85.3277 119.831 85.1125 119.713C84.7135 119.503 84.318 119.276 83.9225 119.059C83.8035 118.975 83.667 118.905 83.5305 118.828C83.0133 118.521 82.501 118.206 81.994 117.883C81.8533 117.797 81.7156 117.706 81.581 117.61C81.2096 117.38 80.8454 117.138 80.489 116.885C80.3665 116.805 80.2545 116.717 80.1285 116.63C79.7797 116.389 79.4354 116.142 79.096 115.888C78.949 115.769 78.7915 115.657 78.634 115.538C78.326 115.293 78.0145 115.065 77.7065 114.81L77.2935 114.477C76.896 114.159 76.5051 113.832 76.121 113.497C76.0813 113.457 76.038 113.421 75.9915 113.389L74.777 112.283L74.427 111.954C74.14 111.66 73.846 111.38 73.552 111.093L73.209 110.743C72.8393 110.375 72.4787 109.998 72.1275 109.612L72.075 109.556C71.704 109.15 71.34 108.734 70.9795 108.314C70.885 108.209 70.794 108.09 70.6995 107.974L69.905 107.005C69.5014 106.486 69.1047 105.963 68.715 105.433C60.532 94.265 57.571 78.844 64.1195 66.1985L58.3375 73.545ZM81.42 64.543C76.03 72.2815 76.331 82.6345 80.531 90.821C81.2251 92.1984 82.0181 93.5238 82.904 94.7865C83.709 95.9415 84.598 97.31 85.6795 98.2445C86.054 98.6715 86.46 99.0845 86.8835 99.5045L87.1985 99.8195C87.5975 100.204 88.0105 100.579 88.4235 100.957L88.4795 101.002C88.9516 101.415 89.4347 101.814 89.9285 102.199C90.0475 102.28 90.149 102.374 90.2645 102.455C90.7545 102.833 91.2515 103.197 91.7625 103.561L91.815 103.592C92.032 103.75 92.263 103.893 92.508 104.047C92.606 104.11 92.718 104.194 92.823 104.257C93.194 104.495 93.558 104.719 93.936 104.947C93.9955 104.971 94.048 105.003 94.104 105.027C94.419 105.22 94.762 105.405 95.091 105.577C95.2065 105.647 95.3185 105.699 95.441 105.766C95.672 105.881 95.903 106.004 96.1305 106.123L96.2425 106.172C96.715 106.406 97.198 106.623 97.6705 106.837C97.7895 106.886 97.891 106.924 97.9925 106.973C98.381 107.141 98.7765 107.302 99.1685 107.453C99.3435 107.512 99.508 107.582 99.6725 107.635C100.03 107.768 100.408 107.89 100.758 108.013L101.248 108.17C101.762 108.328 102.28 108.534 102.819 108.625C130.574 113.221 137 91.843 137 91.843C131.215 100.173 120.018 104.138 108.087 101.041C107.558 100.905 107.034 100.753 106.515 100.586C106.347 100.537 106.2 100.484 106.039 100.435C105.675 100.309 105.301 100.19 104.947 100.054L104.443 99.865C104.048 99.7075 103.649 99.5605 103.267 99.3925C103.148 99.34 103.04 99.305 102.949 99.2525C102.459 99.032 101.965 98.815 101.486 98.5805L100.765 98.206L100.348 97.996C100.034 97.8293 99.7249 97.6542 99.4205 97.471C99.3459 97.4343 99.2734 97.3934 99.2035 97.3485C98.8325 97.1175 98.444 96.8935 98.0905 96.6555C97.9715 96.589 97.863 96.5085 97.751 96.4385L97.023 95.9625C96.519 95.6125 96.0255 95.2345 95.525 94.867C95.413 94.7655 95.3045 94.6815 95.196 94.5905C89.9495 90.4675 85.8125 84.8255 83.849 78.445C81.784 71.8055 82.239 64.3645 85.809 58.32L81.42 64.543ZM100.831 57.8055C97.6495 62.4745 97.345 68.2705 99.536 73.4155C101.864 78.886 106.62 83.1805 112.164 85.2105C112.392 85.298 112.612 85.3715 112.85 85.4555L113.158 85.55C113.48 85.655 113.806 85.7705 114.138 85.844C129.472 88.8015 133.623 77.969 134.739 76.38C131.089 81.623 124.967 82.8795 117.456 81.0525C116.844 80.8995 116.241 80.7125 115.65 80.4925C114.914 80.2343 114.192 79.9375 113.487 79.6035C112.153 78.9581 110.884 78.1844 109.7 77.2935C102.973 72.194 98.8045 62.4675 103.194 54.5435" fill="#07B5FF"/>
</g>
<defs>
<clipPath id="clip0_704_14">
<rect width="84" height="84" fill="white" transform="translate(53 53)"/>
</clipPath>
</defs>
</svg>
