<svg width="190" height="190" viewBox="0 0 190 190" fill="none" xmlns="http://www.w3.org/2000/svg">
<rect width="190" height="190" fill="white"/>
<path d="M136.949 70.9111C136.983 71.0303 137 71.1537 137 71.2778V90.1576C137 90.6526 136.734 91.111 136.311 91.353L120.548 100.483V118.575C120.548 118.817 120.484 119.054 120.364 119.264C120.244 119.474 120.071 119.648 119.863 119.77L86.9524 138.815C86.8761 138.857 86.7954 138.89 86.7117 138.914C86.6826 138.921 86.6534 138.943 86.6242 138.95C86.3955 139.016 86.1529 139.016 85.9242 138.95C85.884 138.943 85.8512 138.921 85.8148 138.906C85.7418 138.877 85.6616 138.855 85.5887 138.815L52.6891 119.77C52.4798 119.649 52.3059 119.475 52.1849 119.265C52.0639 119.055 52.0001 118.817 52 118.575V61.9057C52 61.7847 52.0182 61.6637 52.051 61.5463C52.062 61.5023 52.0875 61.473 52.1021 61.429C52.124 61.3558 52.1521 61.2847 52.186 61.2163C52.2005 61.1687 52.2406 61.1357 52.2698 61.0953L52.3901 60.9303C52.4339 60.8937 52.4813 60.8643 52.5251 60.8313C52.5761 60.7873 52.6235 60.7433 52.6745 60.7067H52.6782L69.1335 51.1842C69.3413 51.0635 69.5771 51 69.8171 51C70.0571 51 70.2929 51.0635 70.5008 51.1842L86.9524 60.7067H86.9597C87.0144 60.7433 87.0581 60.7837 87.1055 60.8277L87.2441 60.9267C87.2915 60.978 87.317 61.0367 87.3644 61.0917C87.3936 61.132 87.4373 61.1687 87.4556 61.2127C87.492 61.286 87.5175 61.352 87.5431 61.4253C87.554 61.4657 87.5795 61.5023 87.5905 61.5427C87.6269 61.6563 87.6415 61.7773 87.6415 61.902V97.293L101.351 89.3583V71.2668C101.351 71.1458 101.366 71.0248 101.399 70.9074C101.41 70.8708 101.435 70.8341 101.446 70.7901C101.47 70.7161 101.5 70.6439 101.534 70.5738C101.559 70.5298 101.599 70.5004 101.625 70.4528C101.668 70.3978 101.701 70.3428 101.745 70.2951C101.789 70.2511 101.836 70.2218 101.88 70.1924C101.931 70.1558 101.975 70.1081 102.029 70.0751H102.033L118.488 60.549C118.696 60.4283 118.932 60.3648 119.172 60.3648C119.412 60.3648 119.648 60.4283 119.856 60.549L136.311 70.0751C136.369 70.1118 136.409 70.1521 136.464 70.1888C136.508 70.2254 136.555 70.2548 136.595 70.2914C136.643 70.3428 136.675 70.4014 136.719 70.4528C136.748 70.4968 136.789 70.5298 136.807 70.5738C136.847 70.6471 136.872 70.7204 136.894 70.7938C136.916 70.8304 136.938 70.8708 136.949 70.9111V70.9111ZM134.251 89.362V73.6575L128.497 76.9868L120.541 81.5922V97.2967L134.251 89.362ZM117.806 117.779V102.06L109.978 106.551L87.6415 119.378V135.236L117.806 117.779ZM54.731 64.289V117.779L84.8959 135.236V119.378L69.1371 110.413L69.1298 110.402H69.1225C69.0715 110.365 69.0314 110.325 68.9767 110.288C68.9366 110.251 68.8892 110.222 68.849 110.189L68.8454 110.182C68.798 110.138 68.7688 110.09 68.7324 110.035C68.6959 109.995 68.6558 109.954 68.6303 109.903H68.623C68.5938 109.852 68.5756 109.789 68.5501 109.731C68.5282 109.672 68.499 109.632 68.4844 109.573C68.4706 109.504 68.4609 109.434 68.4553 109.364C68.448 109.312 68.4334 109.265 68.4334 109.214V72.2274L60.4847 67.6184L54.731 64.289ZM69.8153 53.9709L56.1056 61.9057L69.8153 69.8404L83.5177 61.9057L69.8153 53.9709ZM76.9472 103.49L84.9032 98.8844V64.289L79.1422 67.6257L71.1863 72.2274V106.823L76.9472 103.49ZM119.174 63.3393L105.464 71.2704L119.174 79.2015L132.88 71.2668L119.174 63.3393ZM117.803 81.5922L109.85 76.9868L104.089 73.6611V89.3656L112.045 93.971L117.806 97.3004L117.803 81.5922ZM86.2633 116.991L106.368 105.448L116.417 99.6837L102.719 91.7526L86.956 100.879L72.5864 109.202L86.2633 116.991Z" fill="#FF3030"/>
</svg>
