<svg width="190" height="190" viewBox="0 0 190 190" fill="none" xmlns="http://www.w3.org/2000/svg">
<rect width="190" height="190" fill="white"/>
<path d="M113.321 86.4425C108.983 66.9125 98.7289 60.4935 97.6273 58.04C96.6663 56.661 95.8084 54.701 95.1049 53C94.9813 54.7325 94.9161 55.3975 93.31 57.144C90.8288 59.125 78.0795 70.031 77.0431 92.214C76.0753 112.906 91.6971 125.236 93.8179 126.808L94.0582 126.983C94.4998 130.314 94.8774 133.654 95.1907 137H96.8414C97.2326 133.388 97.816 129.804 98.5916 126.255C100.023 125.219 100.664 124.634 101.509 123.829C105.507 120.058 108.684 115.472 110.835 110.369C112.986 105.266 114.064 99.7596 113.997 94.2055C114.031 91.3565 113.644 88.3885 113.321 86.4425V86.4425ZM95.0088 115.125C95.0088 115.125 95.0088 86.1065 95.9525 86.11C96.6835 86.11 97.6341 123.543 97.6341 123.543C96.3266 123.385 95.0088 117.382 95.0088 115.125Z" fill="#00A02D"/>
</svg>
