<svg width="190" height="190" viewBox="0 0 190 190" fill="none" xmlns="http://www.w3.org/2000/svg">
<rect width="190" height="190" fill="white"/>
<path d="M114.088 67.0869C113.59 67.0869 113.252 67.1471 112.901 67.2287V67.2845H112.962C113.196 67.7312 113.594 68.0577 113.889 68.4571C114.123 68.9167 114.322 69.3763 114.556 69.8316L114.617 69.7672C115.024 69.4837 115.224 69.0284 115.224 68.3369C115.05 68.135 115.024 67.9331 114.877 67.7355C114.704 67.4477 114.331 67.306 114.097 67.0783L114.088 67.0869ZM68.0033 123.759H63.9863C63.8734 117.431 63.483 111.111 62.8163 104.817H62.7817L56.6717 123.759H53.6167L47.55 104.817H47.5067C47.0321 111.121 46.7503 117.438 46.6617 123.759H43C43.2383 115.314 43.832 107.394 44.7767 100.006H49.76L55.545 117.462H55.5797L61.4167 100.006H66.1617C67.2103 108.661 67.8257 116.586 68.0163 123.759H68.0033ZM85.4103 106.234C83.7723 115.018 81.6143 121.409 78.945 125.391C76.8563 128.467 74.5683 130 72.0853 130C71.4223 130 70.612 129.802 69.6327 129.407V127.285C70.1093 127.358 70.6727 127.397 71.3053 127.397C72.4667 127.397 73.3983 127.075 74.109 126.444C74.9627 125.67 75.3873 124.803 75.3873 123.845C75.3873 123.179 75.0537 121.826 74.3907 119.79L69.9967 106.234H73.94L77.0903 116.371C77.801 118.673 78.1 120.28 77.9787 121.195C79.712 116.624 80.9167 111.629 81.597 106.234H85.4103ZM138.819 123.759H127.422V100.006H131.257V120.838H138.819V123.759ZM124.432 124.339L120.029 122.191C120.419 121.865 120.796 121.513 121.134 121.117C123.011 118.944 123.942 115.714 123.942 111.44C123.942 103.58 120.831 99.6452 114.604 99.6452C111.553 99.6452 109.17 100.642 107.454 102.639C105.591 104.821 104.655 108.034 104.655 112.282C104.655 116.457 105.478 119.524 107.142 121.474C108.659 123.235 110.942 124.115 114.002 124.115C115.146 124.115 116.194 123.974 117.143 123.695L122.885 127.01L124.445 124.339H124.432ZM110.167 119.004C109.192 117.458 108.706 114.966 108.706 111.547C108.706 105.564 110.544 102.57 114.21 102.57C116.129 102.57 117.546 103.288 118.443 104.718C119.414 106.273 119.899 108.738 119.899 112.119C119.899 118.149 118.062 121.173 114.396 121.173C112.468 121.173 111.059 120.456 110.158 119.026L110.167 119.004ZM102.982 117.179C102.982 119.197 102.237 120.855 100.746 122.144C99.2553 123.433 97.2663 124.077 94.7487 124.077C92.3957 124.077 90.138 123.338 87.9323 121.865L88.9593 119.82C90.8573 120.765 92.569 121.229 94.116 121.229C95.5547 121.229 96.6857 120.915 97.509 120.284C97.9205 119.977 98.2528 119.577 98.4787 119.118C98.7047 118.659 98.8178 118.153 98.809 117.642C98.809 116.225 97.8123 115.022 96.001 114.013C94.3197 113.098 90.9613 111.191 90.9613 111.191C89.1327 109.872 88.2227 108.459 88.2227 106.135C88.2227 104.203 88.903 102.656 90.2593 101.475C91.6243 100.281 93.3793 99.6925 95.546 99.6925C97.7647 99.6925 99.7927 100.277 101.613 101.454L100.69 103.498C99.2354 102.865 97.6673 102.529 96.079 102.51C94.8527 102.51 93.9037 102.802 93.245 103.395C92.9108 103.669 92.6413 104.013 92.4556 104.402C92.2699 104.791 92.1726 105.215 92.1703 105.646C92.1703 107.055 93.1843 108.266 95.0563 109.297C96.7593 110.22 100.2 112.175 100.2 112.175C102.076 113.485 103.008 114.881 103.008 117.191L102.982 117.179ZM143.637 92.0425C141.319 91.9824 139.521 92.2144 138.017 92.8501C137.584 93.0219 136.89 93.0219 136.83 93.5674C137.068 93.795 137.103 94.1687 137.306 94.4866C137.653 95.0621 138.251 95.831 138.806 96.2347C139.412 96.7072 140.019 97.1625 140.656 97.5663C141.783 98.2535 143.061 98.6616 144.166 99.3531C144.794 99.7569 145.436 100.268 146.073 100.698C146.389 100.912 146.593 101.299 147 101.436V101.35C146.801 101.093 146.74 100.719 146.545 100.431C146.255 100.143 145.964 99.8857 145.678 99.6023C144.828 98.4909 143.812 97.5134 142.667 96.7029C141.739 96.0758 139.711 95.1996 139.33 94.1472L139.274 94.0871C139.906 94.0313 140.66 93.8036 141.267 93.6318C142.251 93.3741 143.152 93.4299 144.17 93.1765C144.63 93.0605 145.093 92.9188 145.557 92.7727V92.515C145.037 91.9996 144.647 91.2995 144.11 90.8184C142.61 89.5189 141.01 88.337 139.326 87.2834C138.416 86.7078 137.263 86.3384 136.305 85.8487C135.959 85.6769 135.378 85.591 135.179 85.3032C134.659 84.6761 134.355 83.8428 133.987 83.0955C133.136 81.4593 132.345 79.7931 131.617 78.1C131.097 76.9747 130.78 75.8536 130.143 74.8227C127.153 69.939 123.916 66.9795 118.937 64.0845C117.867 63.4832 116.584 63.2255 115.228 62.9076C114.504 62.8733 113.781 62.8217 113.061 62.7916C112.585 62.5898 112.125 62.0443 111.718 61.7823C110.071 60.7514 105.807 58.5178 104.594 61.473C103.814 63.3371 105.751 65.1755 106.423 66.1205C106.921 66.7777 107.549 67.5293 107.896 68.2681C108.1 68.7664 108.156 69.2775 108.36 69.7973C108.819 71.0601 109.257 72.4689 109.863 73.6501C110.18 74.2515 110.526 74.8829 110.934 75.4241C111.168 75.7376 111.566 75.8837 111.657 76.3991C111.25 76.9833 111.224 77.8337 110.99 78.5468C109.95 81.7983 110.357 85.8187 111.831 88.2112C112.294 88.9242 113.399 90.5048 114.877 89.8992C116.177 89.3838 115.891 87.7516 116.264 86.3126C116.35 85.969 116.294 85.7414 116.472 85.5094V85.5738C116.879 86.3814 117.286 87.1502 117.659 87.9577C118.552 89.3666 120.112 90.827 121.416 91.802C122.109 92.3174 122.66 93.2109 123.526 93.5287V93.4428H123.461C123.275 93.1937 123.028 93.0734 122.794 92.8715C122.245 92.3384 121.737 91.764 121.277 91.1534C120.056 89.4998 118.974 87.7501 118.04 85.9218C117.564 85.0198 117.165 84.049 116.784 83.1599C116.61 82.8163 116.61 82.3008 116.32 82.129C115.887 82.7561 115.25 83.3016 114.933 84.0748C114.383 85.3118 114.327 86.8324 114.119 88.413C114.002 88.4431 114.058 88.413 114.002 88.4732C113.074 88.2498 112.758 87.2963 112.411 86.4973C111.545 84.4571 111.402 81.1798 112.151 78.8302C112.355 78.2289 113.222 76.3304 112.875 75.7548C112.693 75.2093 112.121 74.8958 111.805 74.4533C111.398 73.8775 111.049 73.2632 110.765 72.6193C110.071 71.0128 109.725 69.2346 108.971 67.6281C108.624 66.8851 108.017 66.1076 107.523 65.4247C106.973 64.6515 106.366 64.106 105.929 63.1911C105.786 62.8775 105.582 62.3578 105.812 62.0142C105.872 61.7823 105.994 61.6921 106.219 61.6276C106.6 61.3184 107.671 61.7221 108.048 61.8939C109.118 62.3235 110.019 62.7272 110.916 63.3286C111.324 63.612 111.761 64.1575 112.281 64.2993H112.888C113.815 64.5012 114.86 64.3594 115.726 64.6128C117.265 65.1025 118.651 65.8155 119.895 66.5887C123.727 69.0151 126.844 72.4026 128.93 76.4077C129.277 77.0692 129.428 77.6748 129.745 78.3621C130.351 79.7795 131.101 81.2098 131.716 82.58C132.323 83.933 132.908 85.3118 133.779 86.4329C134.212 87.0342 135.954 87.3478 136.734 87.6614C137.311 87.9191 138.208 88.1553 138.728 88.4689C139.724 89.0702 140.695 89.7575 141.631 90.4189C142.108 90.7454 143.551 91.4627 143.637 92.0425V92.0425Z" fill="#4479A1"/>
</svg>
