<svg width="190" height="190" viewBox="0 0 190 190" fill="none" xmlns="http://www.w3.org/2000/svg">
<rect width="190" height="190" fill="white"/>
<path d="M94.4946 138C93.3332 138 92.1755 137.699 91.1589 137.115L80.5367 130.891C78.952 130.013 79.7263 129.701 80.2472 129.518C82.3637 128.791 82.7906 128.623 85.0518 127.354C85.287 127.221 85.5981 127.272 85.8405 127.415L94.0025 132.213C94.2992 132.374 94.7153 132.374 94.9866 132.213L126.806 114.024C127.103 113.856 127.291 113.519 127.291 113.171V76.8009C127.291 76.4461 127.099 76.1129 126.795 75.9337L94.9902 57.7593C94.6972 57.5908 94.3064 57.5908 94.0098 57.7593L62.212 75.9373C61.9044 76.1129 61.7091 76.4569 61.7091 76.8009V113.171C61.7091 113.519 61.9044 113.849 62.212 114.013L70.9275 119.001C75.6561 121.345 78.5541 118.586 78.5541 115.812V79.904C78.5541 79.3952 78.9665 78.9974 79.4802 78.9974H83.5142C84.0171 78.9974 84.4368 79.3988 84.4368 79.904V115.812C84.4368 122.065 80.9998 125.648 75.0157 125.648C73.1778 125.648 71.7271 125.648 67.6859 123.674L59.3357 118.919C57.2735 117.74 56 115.533 56 113.171V76.8009C56 74.4395 57.2771 72.2322 59.3357 71.0569L91.1552 52.8466C93.1704 51.7178 95.8441 51.7178 97.8411 52.8466L129.657 71.0569C131.719 72.2358 133 74.4395 133 76.8009V113.171C133 115.533 131.719 117.733 129.657 118.919L97.8411 137.115C96.8281 137.699 95.674 138 94.4946 138ZM120.185 102.142C120.185 95.3337 115.54 93.5205 105.761 92.2413C95.8802 90.9477 94.8745 90.2777 94.8745 87.9879C94.8745 86.096 95.7247 83.5697 103.044 83.5697C109.581 83.5697 111.991 84.9636 112.982 89.3281C113.069 89.7402 113.449 90.0412 113.876 90.0412H118.004C118.261 90.0412 118.503 89.9301 118.677 89.7509C118.85 89.5574 118.944 89.3102 118.919 89.0486C118.279 81.5308 113.235 78.0264 103.044 78.0264C93.97 78.0264 88.5576 81.8175 88.5576 88.1779C88.5576 95.0757 93.941 96.982 102.649 97.8348C113.069 98.8453 113.876 100.354 113.876 102.382C113.876 105.904 111.021 107.406 104.317 107.406C95.8983 107.406 94.046 105.313 93.4237 101.164C93.3513 100.719 92.9678 100.393 92.5083 100.393H88.3948C87.8847 100.393 87.4758 100.795 87.4758 101.3C87.4758 106.61 90.3919 112.938 104.317 112.938C114.404 112.942 120.185 109.011 120.185 102.142Z" fill="#00733C"/>
</svg>
