<svg width="190" height="190" viewBox="0 0 190 190" fill="none" xmlns="http://www.w3.org/2000/svg">
<rect width="190" height="190" fill="white"/>
<path d="M70.05 86.5503H65.33L62.755 99.764H66.945C69.725 99.764 71.795 99.2401 73.155 98.1971C74.515 97.1492 75.43 95.4077 75.905 92.9625C76.365 90.6172 76.155 88.9605 75.285 87.9974C74.41 87.0343 72.67 86.5503 70.05 86.5503V86.5503ZM95 64C61.865 64 35 78.102 35 95.4975C35 112.893 61.865 127 95 127C128.135 127 155 112.893 155 95.4975C155 78.102 128.135 64 95 64ZM78.7 101.181C77.395 102.429 75.825 103.367 74.115 103.931C72.435 104.47 70.29 104.749 67.69 104.749H61.785L60.15 113.138H53.26L59.41 81.5701H72.66C76.645 81.5701 79.55 82.6131 81.38 84.7039C83.21 86.7898 83.76 89.704 83.03 93.4466C82.7504 94.9275 82.2356 96.3543 81.505 97.6732C80.79 98.9457 79.855 100.118 78.7 101.181ZM98.82 104.749L101.535 90.7819C101.85 89.195 101.73 88.1072 101.195 87.5333C100.66 86.9545 99.515 86.665 97.76 86.665H92.3L88.78 104.754H81.94L88.09 73.1818H94.925L93.29 81.5751H99.38C103.215 81.5751 105.855 82.2438 107.31 83.5762C108.765 84.9085 109.2 87.0692 108.625 90.0583L105.765 104.749H98.82V104.749ZM136.805 93.4466C136.53 94.9287 136.015 96.3563 135.28 97.6732C134.565 98.9457 133.63 100.118 132.475 101.181C131.169 102.425 129.603 103.364 127.89 103.931C126.21 104.47 124.065 104.749 121.46 104.749H115.56L113.925 113.142H107.035L113.185 81.5751H126.43C130.415 81.5751 133.32 82.6181 135.15 84.7089C136.98 86.7898 137.535 89.704 136.805 93.4466V93.4466ZM123.83 86.5503H119.115L116.535 99.764H120.725C123.51 99.764 125.58 99.2401 126.935 98.1971C128.295 97.1492 129.21 95.4077 129.69 92.9625C130.15 90.6172 129.935 88.9605 129.065 87.9974C128.195 87.0343 126.445 86.5503 123.83 86.5503V86.5503Z" fill="#777BB4"/>
</svg>
