<svg width="190" height="190" viewBox="0 0 190 190" fill="none" xmlns="http://www.w3.org/2000/svg">
<rect width="190" height="190" fill="white"/>
<path d="M102.983 55.6036L106.001 56.2742L108.449 57.146L110.427 58.1519L111.936 59.2249L113.076 60.365L113.914 61.5051L114.451 62.6116L114.786 63.6175L114.92 64.4893L114.987 65.16L114.954 65.5959V83.5016L114.786 85.614L114.35 87.4583L113.646 89.0007L112.774 90.2749L111.768 91.3144L110.662 92.1526L109.488 92.7897L108.315 93.2592L107.208 93.5945L106.202 93.8292L105.33 93.9633L104.626 94.0304H84.6081L82.2945 94.198L80.3161 94.6675L78.6395 95.4052L77.2648 96.3105L76.1582 97.3835L75.2529 98.5571L74.5823 99.7642L74.0793 101.005L73.744 102.178L73.5093 103.251L73.3751 104.157L73.3081 104.861V115.122H65.8306L65.1264 115.021L64.1876 114.786L63.1146 114.384L61.941 113.78L60.7338 112.908L59.5267 111.701L58.3531 110.159L57.2801 108.181L56.3413 105.733L55.6371 102.782L55.1677 99.2613L55 95.1369L55.2012 91.0461L55.7377 87.5589L56.5424 84.6416L57.6154 82.2609L58.8226 80.3496L60.1638 78.8743L61.5721 77.7677L62.9804 76.963L64.3217 76.4265L65.5288 76.0912L66.6018 75.9235L67.4066 75.89H67.9431L68.1443 75.9235H95.5058V73.1404H75.9235L75.89 63.9193L75.8229 62.6787L75.9906 61.5386L76.3594 60.4991L76.9294 59.5603L77.7677 58.6884L78.8072 57.9172L80.0814 57.2466L81.5568 56.643L83.2669 56.1401L85.2117 55.7377L87.3577 55.4024L89.7384 55.2012L92.3203 55.0671L95.1369 55L99.3954 55.1677L102.983 55.6036ZM81.8585 62.2428L81.0873 63.3493L80.8191 64.7241L81.0873 66.0988L81.8585 67.2389L82.9651 67.9766L84.3399 68.2784L85.7146 67.9766L86.8212 67.2389L87.5924 66.0988L87.8606 64.7241L87.5924 63.3493L86.8212 62.2428L85.7146 61.5051L84.3399 61.2033L82.9651 61.5051L81.8585 62.2428Z" fill="#CCB500"/>
<path d="M87.1237 134.637L84.1059 133.967L81.6581 133.095L79.6798 132.089L78.1708 131.016L77.0308 129.876L76.1925 128.736L75.656 127.629L75.3207 126.623L75.1866 125.751L75.1195 125.081L75.153 124.645L75.153 106.739L75.3207 104.627L75.7566 102.782L76.4608 101.24L77.3326 99.9658L78.3385 98.9264L79.445 98.0881L80.6186 97.451L81.7922 96.9815L82.8988 96.6462L83.9047 96.4115L84.7765 96.2774L85.4807 96.2103L105.499 96.2103L107.812 96.0427L109.791 95.5732L111.467 94.8355L112.842 93.9302L113.949 92.8572L114.854 91.6836L115.525 90.4765L116.028 89.2358L116.363 88.0622L116.598 86.9892L116.732 86.0839L116.799 85.3797L116.799 75.1192L124.276 75.1192L124.98 75.2198L125.919 75.4545L126.992 75.8569L128.166 76.4604L129.373 77.3322L130.58 78.5394L131.754 80.0818L132.827 82.0601L133.766 84.5079L134.47 87.4587L134.939 90.9795L135.107 95.1038L134.906 99.1946L134.369 102.682L133.564 105.599L132.491 107.98L131.284 109.891L129.943 111.366L128.535 112.473L127.126 113.278L125.785 113.814L124.578 114.15L123.505 114.317L122.7 114.351L122.164 114.351L121.963 114.317L94.6012 114.317L94.6012 117.1L114.183 117.1L114.217 126.321L114.284 127.562L114.116 128.702L113.748 129.742L113.177 130.68L112.339 131.552L111.3 132.324L110.026 132.994L108.55 133.598L106.84 134.101L104.895 134.503L102.749 134.838L100.369 135.04L97.7866 135.174L94.97 135.241L90.7115 135.073L87.1237 134.637ZM108.248 127.998L109.02 126.891L109.288 125.517L109.02 124.142L108.248 123.002L107.142 122.264L105.767 121.962L104.392 122.264L103.286 123.002L102.515 124.142L102.246 125.517L102.515 126.891L103.286 127.998L104.392 128.736L105.767 129.037L107.142 128.736L108.248 127.998Z" fill="#003B57"/>
</svg>
