<svg width="190" height="190" viewBox="0 0 190 190" fill="none" xmlns="http://www.w3.org/2000/svg">
<rect width="190" height="190" fill="white"/>
<path d="M103.92 94.5099C103.92 96.8675 102.978 99.1285 101.302 100.796C99.6253 102.463 97.3514 103.401 94.98 103.402C92.6079 103.402 90.333 102.465 88.6556 100.797C86.9783 99.1298 86.036 96.8682 86.036 94.5099C86.036 92.1524 86.9778 89.8914 88.6542 88.224C90.3307 86.5566 92.6046 85.6193 94.976 85.6182C97.3481 85.6182 99.623 86.555 101.3 88.2226C102.978 89.8901 103.92 92.1517 103.92 94.5099V94.5099ZM114.512 52C109.128 52 102.084 55.8175 94.96 62.4267C87.84 55.8533 80.792 52.0795 75.412 52.0795C73.772 52.0795 72.28 52.4494 70.988 53.185C65.488 56.3385 64.256 66.1647 67.096 78.4961C54.92 82.2342 47 88.211 47 94.5099C47 100.833 54.96 106.825 67.172 110.536C64.356 122.915 65.612 132.757 71.124 135.906C72.404 136.65 73.884 137 75.532 137C80.912 137 87.96 133.182 95.084 126.565C102.204 133.143 109.252 136.916 114.632 136.916C116.272 136.916 117.764 136.559 119.056 135.823C124.552 132.673 125.788 122.847 122.948 110.512C135.08 106.806 143 100.817 143 94.5099C143 88.1871 135.04 82.1944 122.828 78.4763C125.644 66.109 124.388 56.2589 118.876 53.1055C117.604 52.3738 116.124 52.004 114.508 52H114.512ZM114.492 56.3345V56.3584C115.392 56.3584 116.116 56.5333 116.724 56.8634C119.388 58.3825 120.544 64.1605 119.644 71.5927C119.428 73.422 119.076 75.3506 118.644 77.3191C114.804 76.3806 110.62 75.6608 106.216 75.1956C103.576 71.5967 100.836 68.328 98.076 65.4648C104.444 59.5794 110.424 56.3504 114.496 56.3385L114.492 56.3345ZM75.412 56.414C79.46 56.414 85.468 59.6271 91.852 65.4807C89.108 68.3439 86.372 71.5927 83.772 75.1916C79.344 75.6568 75.156 76.3766 71.32 77.331C70.872 75.3825 70.54 73.4975 70.304 71.6842C69.384 64.2559 70.52 58.4819 73.16 56.9429C73.92 56.585 74.76 56.4379 75.412 56.418V56.414ZM94.94 68.5427C96.76 70.4037 98.58 72.4875 100.38 74.7621C98.62 74.6826 96.82 74.6269 95 74.6269C93.16 74.6269 91.34 74.6667 89.56 74.7621C91.32 72.4875 93.14 70.4037 94.94 68.5387V68.5427ZM95 78.9853C97.96 78.9853 100.908 79.1205 103.808 79.3551C105.432 81.6695 107.016 84.1389 108.54 86.7516C110.028 89.2966 111.38 91.8814 112.612 94.4901C111.38 97.0947 110.028 99.6994 108.56 102.244C107.04 104.869 105.468 107.366 103.84 109.681C100.928 109.931 97.976 110.07 95 110.07C92.04 110.07 89.092 109.931 86.192 109.701C84.568 107.386 82.984 104.913 81.46 102.304C79.972 99.7591 78.62 97.1743 77.388 94.5656C78.6 91.953 79.972 89.3443 81.44 86.7953C82.96 84.1708 84.532 81.6814 86.16 79.367C89.072 79.1125 92.024 78.9773 95 78.9773V78.9853ZM80.46 79.9953C79.5 81.4945 78.54 83.0295 77.644 84.6082C76.744 86.1591 75.904 87.7179 75.104 89.2767C74.044 86.6681 73.144 84.0674 72.4 81.5343C74.96 80.9378 77.66 80.4089 80.46 79.9993V79.9953ZM109.5 79.9953C112.28 80.4049 114.96 80.9099 117.524 81.5343C116.804 84.0475 115.904 86.6323 114.884 89.2211C114.084 87.6702 113.244 86.1074 112.324 84.5525C111.424 82.9937 110.464 81.4746 109.504 79.9953H109.5ZM121.752 82.6795C123.688 83.276 125.528 83.9401 127.252 84.6599C134.18 87.6026 138.66 91.4519 138.66 94.506C138.64 97.56 134.16 101.425 127.232 104.348C125.552 105.064 123.712 105.708 121.812 106.309C120.692 102.499 119.228 98.5303 117.412 94.4582C119.212 90.414 120.652 86.4653 121.752 82.6716V82.6795ZM68.172 82.6954C69.284 86.513 70.752 90.4777 72.572 94.5457C70.772 98.5899 69.324 102.539 68.228 106.332C66.292 105.736 64.452 105.068 62.748 104.344C55.82 101.413 51.34 97.56 51.34 94.506C51.34 91.4519 55.82 87.5787 62.748 84.6599C64.428 83.9441 66.268 83.2999 68.172 82.6954V82.6954ZM114.884 99.7153C115.944 102.328 116.844 104.933 117.588 107.462C115.028 108.086 112.324 108.615 109.524 109.013C110.484 107.521 111.444 105.982 112.344 104.408C113.244 102.857 114.084 101.274 114.888 99.7153H114.884ZM75.104 99.7949C75.904 101.354 76.744 102.909 77.664 104.467C78.584 106.018 79.524 107.537 80.484 109.013C77.704 108.607 75.024 108.098 72.46 107.478C73.18 104.972 74.084 102.38 75.1 99.7909L75.104 99.7949ZM118.68 111.673C119.128 113.633 119.48 115.522 119.696 117.332C120.616 124.76 119.48 130.534 116.84 132.077C116.252 132.435 115.488 132.586 114.588 132.586C110.54 132.586 104.532 129.377 98.148 123.519C100.892 120.656 103.628 117.411 106.228 113.816C110.656 113.347 114.844 112.623 118.68 111.669V111.673ZM71.36 111.713C75.2 112.643 79.384 113.363 83.788 113.828C86.428 117.427 89.168 120.696 91.928 123.555C85.548 129.452 79.56 132.681 75.488 132.681C74.608 132.662 73.864 132.483 73.276 132.156C70.612 130.645 69.456 124.863 70.356 117.431C70.572 115.602 70.924 113.677 71.356 111.713H71.36ZM89.6 114.258C91.36 114.337 93.16 114.393 94.98 114.393C96.82 114.393 98.64 114.353 100.42 114.258C98.66 116.532 96.84 118.612 95.04 120.481C93.22 118.612 91.4 116.532 89.6 114.258Z" fill="#61DAFB"/>
</svg>
